<svg width="27" height="20" viewBox="0 0 27 20" fill="none" xmlns="http://www.w3.org/2000/svg">
<path d="M26.5347 1.73925C26.5806 1.47258 26.393 1.21762 26.1155 1.16979L21.5938 0.390387C21.3163 0.34256 21.0541 0.519973 21.0082 0.786652C20.9622 1.05333 21.1499 1.30829 21.4273 1.35612L25.4466 2.04892L24.7808 5.91183C24.7348 6.17851 24.9225 6.43347 25.1999 6.4813C25.4774 6.52913 25.7396 6.35171 25.7856 6.08503L26.5347 1.73925ZM1.2964 18.993L26.3287 2.05533L25.7359 1.24998L0.703597 18.1877L1.2964 18.993Z" fill="#251B0E"/>
<path d="M23.2887 10.1389C23.2887 14.8903 19.265 18.7777 14.2568 18.7777C9.24853 18.7777 5.22485 14.8903 5.22485 10.1389C5.22485 5.38738 9.24853 1.5 14.2568 1.5C19.265 1.5 23.2887 5.38738 23.2887 10.1389Z" stroke="#251B0E"/>
</svg>
