<svg width="38" height="25" viewBox="0 0 38 25" fill="none" xmlns="http://www.w3.org/2000/svg">
<path d="M31.1988 12.5C31.1988 19.1009 25.5244 24.5 18.4638 24.5C11.4031 24.5 5.72876 19.1009 5.72876 12.5C5.72876 5.89911 11.4031 0.5 18.4638 0.5C25.5244 0.5 31.1988 5.89911 31.1988 12.5Z" stroke="#251B0E"/>
<path d="M37.7376 1.88297C37.7785 1.6401 37.5695 1.40236 37.2706 1.35196L32.4007 0.530634C32.1018 0.480233 31.8264 0.636256 31.7854 0.879121C31.7445 1.12199 31.9535 1.35973 32.2524 1.41013L36.5812 2.1402L35.9879 5.65816C35.9469 5.90103 36.156 6.13877 36.4548 6.18917C36.7537 6.23957 37.0291 6.08355 37.0701 5.84068L37.7376 1.88297ZM1.26157 22.7076L37.5266 2.16719L36.8663 1.41623L0.601219 21.9567L1.26157 22.7076Z" fill="#251B0E"/>
</svg>
